<?xml version="1.0" encoding="iso-8859-1"?>
<!-- Generator: Adobe Illustrator 19.0.0, SVG Export Plug-In . SVG Version: 6.00 Build 0)  -->
<svg xmlns="http://www.w3.org/2000/svg" xmlns:xlink="http://www.w3.org/1999/xlink" version="1.1" id="Capa_1" x="0px" y="0px" viewBox="0 0 496 496" style="enable-background:new 0 0 496 496;" xml:space="preserve" width="512px" height="512px">
<g>
	<g>
		<path d="M431.2,53.6v-0.8c0,0,0-0.8-0.8-0.8l-32-48c-1.6-2.4-4-4-6.4-4H104c-2.4,0-4.8,1.6-6.4,3.2l-32,48c0,0,0,0.8-0.8,0.8v0.8    C64,54.4,64,55.2,64,56v120h16v-16h32v16h16v-20.8l64,64V360c0,4.8,3.2,8,8,8h8v120c0,4.8,3.2,8,8,8h64c4.8,0,8-3.2,8-8V368h8    c4.8,0,8-3.2,8-8V219.2l64-64V176h16v-16h32v16h16V56C432,55.2,432,54.4,431.2,53.6z M112,144H80V64h32V144z M240,480h-16v-16h16    V480z M240,448h-16v-80h16V448z M272,480h-16v-16h16V480z M272,448h-16v-80h16V448z M288,352h-32v-48h-16v48h-32v-64h80V352z     M368,132.8l-77.6,77.6c-1.6,1.6-2.4,3.2-2.4,5.6v56h-80v-56c0-2.4-0.8-4-2.4-5.6L128,132.8V96h16v24c0,2.4,0.8,4,2.4,5.6l48,48    c1.6,1.6,3.2,2.4,5.6,2.4h96c2.4,0,4-0.8,5.6-2.4l48-48c1.6-1.6,2.4-3.2,2.4-5.6V96h16V132.8z M128,80V64h16v16H128z M248,144    c22.4,0,40-17.6,40-40V88c0-8.8-3.2-16.8-8-24h56v52.8L292.8,160h-89.6L160,116.8V64h56c-5.6,7.2-8,15.2-8,24v16    C208,126.4,225.6,144,248,144z M224,104V88c0-13.6,10.4-24,24-24c13.6,0,24,10.4,24,24v16c0,13.6-10.4,24-24,24    C234.4,128,224,117.6,224,104z M368,80h-16V64h16V80z M87.2,48L108,16h279.2l21.6,32H87.2z M416,144h-32v-8V64h32V144z" fill="#FFFFFF"/>
	</g>
</g>
<g>
	<g>
		<rect x="80" y="200" width="16" height="16" fill="#FFFFFF"/>
	</g>
</g>
<g>
	<g>
		<rect x="80" y="232" width="16" height="16" fill="#FFFFFF"/>
	</g>
</g>
<g>
	<g>
		<rect x="96" y="216" width="16" height="16" fill="#FFFFFF"/>
	</g>
</g>
<g>
	<g>
		<rect x="64" y="216" width="16" height="16" fill="#FFFFFF"/>
	</g>
</g>
<g>
	<g>
		<rect x="144" y="280" width="16" height="16" fill="#FFFFFF"/>
	</g>
</g>
<g>
	<g>
		<rect x="144" y="312" width="16" height="16" fill="#FFFFFF"/>
	</g>
</g>
<g>
	<g>
		<rect x="160" y="296" width="16" height="16" fill="#FFFFFF"/>
	</g>
</g>
<g>
	<g>
		<rect x="128" y="296" width="16" height="16" fill="#FFFFFF"/>
	</g>
</g>
<g>
	<g>
		<rect x="400" y="200" width="16" height="16" fill="#FFFFFF"/>
	</g>
</g>
<g>
	<g>
		<rect x="400" y="232" width="16" height="16" fill="#FFFFFF"/>
	</g>
</g>
<g>
	<g>
		<rect x="384" y="216" width="16" height="16" fill="#FFFFFF"/>
	</g>
</g>
<g>
	<g>
		<rect x="416" y="216" width="16" height="16" fill="#FFFFFF"/>
	</g>
</g>
<g>
	<g>
		<rect x="336" y="280" width="16" height="16" fill="#FFFFFF"/>
	</g>
</g>
<g>
	<g>
		<rect x="336" y="312" width="16" height="16" fill="#FFFFFF"/>
	</g>
</g>
<g>
	<g>
		<rect x="320" y="296" width="16" height="16" fill="#FFFFFF"/>
	</g>
</g>
<g>
	<g>
		<rect x="352" y="296" width="16" height="16" fill="#FFFFFF"/>
	</g>
</g>
<g>
</g>
<g>
</g>
<g>
</g>
<g>
</g>
<g>
</g>
<g>
</g>
<g>
</g>
<g>
</g>
<g>
</g>
<g>
</g>
<g>
</g>
<g>
</g>
<g>
</g>
<g>
</g>
<g>
</g>
</svg>
