<?xml version="1.0" encoding="iso-8859-1"?>
<!-- Generator: Adobe Illustrator 19.0.0, SVG Export Plug-In . SVG Version: 6.00 Build 0)  -->
<svg xmlns="http://www.w3.org/2000/svg" xmlns:xlink="http://www.w3.org/1999/xlink" version="1.1" id="Capa_1" x="0px" y="0px" viewBox="0 0 496 496" style="enable-background:new 0 0 496 496;" xml:space="preserve" width="512px" height="512px">
<g>
	<g>
		<path d="M424,0H72c-4.8,0-8,3.2-8,8v480c0,4.8,3.2,8,8,8h352c4.8,0,8-3.2,8-8V8C432,3.2,428.8,0,424,0z M208,16h80v32h-80V16z     M80,16h40v8c0,17.6-14.4,32-32,32h-8V16z M120,480H80v-40h8c17.6,0,32,14.4,32,32V480z M288,480h-80v-32h80V480z M416,480h-40v-8    c0-17.6,14.4-32,32-32h8V480z M416,424h-8c-26.4,0-48,21.6-48,48v8h-56v-40c0-4.8-3.2-8-8-8h-96c-4.8,0-8,3.2-8,8v40h-56v-8    c0-26.4-21.6-48-48-48h-8V72h8c26.4,0,48-21.6,48-48v-8h56v40c0,4.8,3.2,8,8,8h96c4.8,0,8-3.2,8-8V16h56v8c0,26.4,21.6,48,48,48h8    V424z M416,56h-8c-17.6,0-32-14.4-32-32v-8h40V56z" fill="#FFFFFF"/>
	</g>
</g>
<g>
	<g>
		<path d="M320,48v32H176V48h-16v40c0,4.8,3.2,8,8,8h32c0,26.4,21.6,48,48,48c26.4,0,48-21.6,48-48h32c4.8,0,8-3.2,8-8V48H320z     M248,128c-17.6,0-32-14.4-32-32h64C280,113.6,265.6,128,248,128z" fill="#FFFFFF"/>
	</g>
</g>
<g>
	<g>
		<path d="M328,400h-32c0-26.4-21.6-48-48-48c-26.4,0-48,21.6-48,48h-32c-4.8,0-8,3.2-8,8v40h16v-32h144v32h16v-40    C336,403.2,332.8,400,328,400z M216,400c0-17.6,14.4-32,32-32c17.6,0,32,14.4,32,32H216z" fill="#FFFFFF"/>
	</g>
</g>
<g>
	<g>
		<path d="M152,312c-17.6,0-32,14.4-32,32c0,17.6,14.4,32,32,32c17.6,0,32-14.4,32-32C184,326.4,169.6,312,152,312z M152,360    c-8.8,0-16-7.2-16-16s7.2-16,16-16s16,7.2,16,16S160.8,360,152,360z" fill="#FFFFFF"/>
	</g>
</g>
<g>
	<g>
		<path d="M152,120c-17.6,0-32,14.4-32,32c0,17.6,14.4,32,32,32c17.6,0,32-14.4,32-32C184,134.4,169.6,120,152,120z M152,168    c-8.8,0-16-7.2-16-16s7.2-16,16-16s16,7.2,16,16S160.8,168,152,168z" fill="#FFFFFF"/>
	</g>
</g>
<g>
	<g>
		<path d="M344,312c-17.6,0-32,14.4-32,32c0,17.6,14.4,32,32,32c17.6,0,32-14.4,32-32C376,326.4,361.6,312,344,312z M344,360    c-8.8,0-16-7.2-16-16s7.2-16,16-16s16,7.2,16,16S352.8,360,344,360z" fill="#FFFFFF"/>
	</g>
</g>
<g>
	<g>
		<path d="M344,120c-17.6,0-32,14.4-32,32c0,17.6,14.4,32,32,32c17.6,0,32-14.4,32-32C376,134.4,361.6,120,344,120z M344,168    c-8.8,0-16-7.2-16-16s7.2-16,16-16s16,7.2,16,16S352.8,168,344,168z" fill="#FFFFFF"/>
	</g>
</g>
<g>
	<g>
		<path d="M312,232v-40c0-4.8-3.2-8-8-8h-40v16h20.8L244,240.8L203.2,200H224v-16h-40c-4.8,0-8,3.2-8,8v40h16v-20.8l40.8,40.8    l-54.4,54.4l11.2,11.2l54.4-54.4l54.4,54.4l11.2-11.2L255.2,252l40.8-40.8V232H312z" fill="#FFFFFF"/>
	</g>
</g>
<g>
	<g>
		<polygon points="149.6,229.6 138.4,218.4 120,236.8 101.6,218.4 90.4,229.6 108.8,248 90.4,266.4 101.6,277.6 120,259.2     138.4,277.6 149.6,266.4 131.2,248   " fill="#FFFFFF"/>
	</g>
</g>
<g>
	<g>
		<polygon points="405.6,229.6 394.4,218.4 376,236.8 357.6,218.4 346.4,229.6 364.8,248 346.4,266.4 357.6,277.6 376,259.2     394.4,277.6 405.6,266.4 387.2,248   " fill="#FFFFFF"/>
	</g>
</g>
<g>
</g>
<g>
</g>
<g>
</g>
<g>
</g>
<g>
</g>
<g>
</g>
<g>
</g>
<g>
</g>
<g>
</g>
<g>
</g>
<g>
</g>
<g>
</g>
<g>
</g>
<g>
</g>
<g>
</g>
</svg>
