<?xml version="1.0" encoding="iso-8859-1"?>
<!-- Generator: Adobe Illustrator 19.0.0, SVG Export Plug-In . SVG Version: 6.00 Build 0)  -->
<svg xmlns="http://www.w3.org/2000/svg" xmlns:xlink="http://www.w3.org/1999/xlink" version="1.1" id="Capa_1" x="0px" y="0px" viewBox="0 0 496 496" style="enable-background:new 0 0 496 496;" xml:space="preserve" width="512px" height="512px">
<g>
	<g>
		<path d="M248,80c-22.4,0-40,17.6-40,40v16c0,22.4,17.6,40,40,40c22.4,0,40-17.6,40-40v-16C288,97.6,270.4,80,248,80z M272,136    c0,13.6-10.4,24-24,24c-13.6,0-24-10.4-24-24v-16c0-13.6,10.4-24,24-24c13.6,0,24,10.4,24,24V136z" fill="#FFFFFF"/>
	</g>
</g>
<g>
	<g>
		<path d="M288,192h-80c-17.6,0-32,14.4-32,32v104c0,4.8,3.2,8,8,8h24v152c0,4.8,3.2,8,8,8h64c4.8,0,8-3.2,8-8V336h24    c4.8,0,8-3.2,8-8V224C320,206.4,305.6,192,288,192z M240,480h-16v-16h16V480z M240,448h-16v-64h16V448z M272,480h-16v-16h16V480z     M272,448h-16v-64h16V448z M272,328v40h-16v-32h-16v32h-16v-48h48V328z M304,320h-16v-88h-16v72h-48v-72h-16v88h-16v-96    c0-8.8,7.2-16,16-16h80c8.8,0,16,7.2,16,16V320z" fill="#FFFFFF"/>
	</g>
</g>
<g>
	<g>
		<path d="M72,0C49.6,0,32,17.6,32,40v16c0,22.4,17.6,40,40,40s40-17.6,40-40V40C112,17.6,94.4,0,72,0z M96,56c0,13.6-10.4,24-24,24    S48,69.6,48,56V40c0-13.6,10.4-24,24-24s24,10.4,24,24V56z" fill="#FFFFFF"/>
	</g>
</g>
<g>
	<g>
		<path d="M112,112H32c-17.6,0-32,14.4-32,32v104c0,4.8,3.2,8,8,8h24v152c0,4.8,3.2,8,8,8h64c4.8,0,8-3.2,8-8V256h24    c4.8,0,8-3.2,8-8V144C144,126.4,129.6,112,112,112z M64,400H48v-16h16V400z M64,368H48v-64h16V368z M96,400H80v-16h16V400z     M96,368H80v-64h16V368z M96,248v40H80v-32H64v32H48v-48h48V248z M128,240h-16v-88H96v72H48v-72H32v88H16v-96c0-8.8,7.2-16,16-16    h80c8.8,0,16,7.2,16,16V240z" fill="#FFFFFF"/>
	</g>
</g>
<g>
	<g>
		<path d="M424,0c-22.4,0-40,17.6-40,40v16c0,22.4,17.6,40,40,40c22.4,0,40-17.6,40-40V40C464,17.6,446.4,0,424,0z M448,56    c0,13.6-10.4,24-24,24c-13.6,0-24-10.4-24-24V40c0-13.6,10.4-24,24-24c13.6,0,24,10.4,24,24V56z" fill="#FFFFFF"/>
	</g>
</g>
<g>
	<g>
		<path d="M464,112h-80c-17.6,0-32,14.4-32,32v104c0,4.8,3.2,8,8,8h24v152c0,4.8,3.2,8,8,8h64c4.8,0,8-3.2,8-8V256h24    c4.8,0,8-3.2,8-8V144C496,126.4,481.6,112,464,112z M416,400h-16v-16h16V400z M416,368h-16v-64h16V368z M448,400h-16v-16h16V400z     M448,368h-16v-64h16V368z M448,248v40h-16v-32h-16v32h-16v-48h48V248z M480,240h-16v-88h-16v72h-48v-72h-16v88h-16v-96    c0-8.8,7.2-16,16-16h80c8.8,0,16,7.2,16,16V240z" fill="#FFFFFF"/>
	</g>
</g>
<g>
</g>
<g>
</g>
<g>
</g>
<g>
</g>
<g>
</g>
<g>
</g>
<g>
</g>
<g>
</g>
<g>
</g>
<g>
</g>
<g>
</g>
<g>
</g>
<g>
</g>
<g>
</g>
<g>
</g>
</svg>
